<?xml version="1.0" standalone="no"?>
<!DOCTYPE svg PUBLIC "-//W3C//DTD SVG 20010904//EN"
 "http://www.w3.org/TR/2001/REC-SVG-20010904/DTD/svg10.dtd">
<svg version="1.0" xmlns="http://www.w3.org/2000/svg"
 width="740.000000pt" height="740.000000pt" viewBox="0 0 740.000000 740.000000"
 preserveAspectRatio="xMidYMid meet">

<g transform="translate(0.000000,740.000000) scale(0.100000,-0.100000)"
fill="#000000" stroke="none">
<path d="M3606 6403 c-175 -29 -364 -101 -494 -189 -72 -49 -243 -211 -270
-257 -27 -45 -53 -44 -155 3 -323 149 -460 190 -641 190 -382 0 -674 -149
-870 -445 -87 -132 -124 -209 -161 -336 -52 -178 -32 -391 52 -564 74 -153
213 -322 338 -410 132 -94 302 -160 470 -184 121 -18 119 -16 144 -68 86 -178
159 -472 192 -778 11 -96 3 -406 -11 -465 -4 -19 -11 -75 -15 -124 l-7 -89 23
6 c13 3 101 30 196 60 942 301 1768 287 2750 -47 57 -19 104 -32 106 -28 2 4
-5 86 -15 182 -36 328 -25 668 32 946 30 147 98 390 119 422 6 9 49 16 137 22
155 10 243 28 349 69 275 106 465 360 531 708 22 116 15 305 -15 418 -57 216
-230 467 -419 607 -202 150 -482 218 -717 173 -118 -23 -209 -52 -299 -96 -85
-42 -150 -85 -111 -75 11 3 65 13 120 21 300 45 629 -22 851 -172 173 -118
276 -254 351 -464 38 -104 38 -104 37 -264 0 -151 -1 -165 -28 -240 -30 -83
-76 -172 -111 -215 -144 -176 -263 -242 -467 -259 -406 -36 -359 -36 -603 4
-49 9 -101 18 -115 20 -24 5 -25 5 -5 -11 11 -8 82 -49 158 -91 76 -42 141
-82 144 -89 6 -16 -15 -114 -28 -130 -5 -6 -18 -51 -29 -100 -12 -49 -25 -100
-31 -114 -5 -14 -18 -79 -30 -145 -11 -66 -25 -140 -31 -165 -5 -25 -11 -184
-13 -354 -2 -169 -6 -310 -9 -313 -2 -3 -33 4 -68 16 -130 42 -409 104 -632
138 -220 34 -247 36 -546 40 -336 5 -379 2 -735 -52 -178 -26 -183 -27 -439
-94 -87 -22 -162 -41 -165 -41 -3 0 -6 107 -6 238 -1 175 -6 268 -19 357 -24
161 -84 393 -139 538 -29 77 -41 120 -33 122 209 71 654 274 571 261 -16 -3
-91 -15 -165 -26 -74 -12 -166 -28 -205 -35 -108 -21 -351 -38 -444 -31 -118
9 -200 30 -298 76 -113 53 -195 113 -282 206 -301 322 -272 724 75 1053 65 62
106 91 177 126 135 66 196 79 362 79 173 0 227 -13 468 -121 392 -173 576
-230 826 -254 169 -16 332 5 471 61 41 17 86 39 100 50 l25 19 -40 -9 c-126
-26 -372 -19 -550 16 -89 18 -282 87 -304 109 -12 12 -8 22 34 71 111 129 308
250 480 294 171 44 366 37 540 -21 162 -54 271 -130 407 -284 147 -167 238
-327 282 -497 13 -49 26 -85 29 -81 21 20 -2 308 -34 437 -79 313 -333 549
-689 642 -90 23 -128 27 -265 30 -88 1 -173 0 -189 -3z"/>
<path d="M2895 4044 c-13 -266 2 -359 71 -449 33 -44 116 -85 185 -92 31 -3
117 4 204 16 407 56 663 50 989 -24 60 -14 111 -23 113 -21 5 5 -64 45 -152
88 -212 105 -418 158 -640 165 -83 3 -199 0 -260 -7 -60 -6 -134 -14 -163 -17
-147 -16 -224 80 -297 372 -16 61 -31 114 -35 118 -5 5 -11 -62 -15 -149z"/>
<path d="M4199 2336 c-3 -3 -35 -10 -72 -16 -92 -14 -161 -42 -243 -96 -38
-26 -71 -49 -74 -53 -3 -3 -27 -26 -52 -50 l-47 -44 -79 74 c-214 202 -492
234 -757 88 -93 -52 -144 -93 -371 -303 -199 -184 -282 -248 -414 -318 -280
-149 -544 -80 -591 154 -28 137 79 279 228 303 48 7 140 -13 203 -45 l41 -21
-16 31 c-24 47 -88 106 -147 136 -64 33 -191 45 -254 24 -99 -33 -211 -135
-265 -242 -77 -152 -52 -400 56 -563 46 -68 185 -200 258 -243 153 -92 333
-143 571 -163 378 -31 816 47 1131 202 140 68 209 118 322 230 l81 81 39 -43
c174 -196 400 -320 732 -403 372 -93 814 -97 1091 -11 357 112 591 370 607
671 6 102 -6 169 -44 251 -34 74 -113 157 -191 200 -59 33 -75 37 -155 41 -84
4 -91 3 -153 -29 -58 -29 -174 -129 -174 -149 0 -4 28 4 62 18 46 18 81 25
129 24 116 0 197 -51 248 -154 58 -116 37 -218 -62 -305 -61 -54 -95 -66 -187
-71 -211 -11 -390 88 -733 401 -183 169 -278 245 -367 297 -89 52 -132 67
-245 85 -101 17 -100 17 -106 11z"/>
</g>
</svg>
